<?xml version="1.0" standalone="no"?>
<!DOCTYPE svg PUBLIC "-//W3C//DTD SVG 20010904//EN"
 "http://www.w3.org/TR/2001/REC-SVG-20010904/DTD/svg10.dtd">
<svg version="1.0" xmlns="http://www.w3.org/2000/svg"
 width="1849.000000pt" height="1016.000000pt" viewBox="0 0 1849.000000 1016.000000"
 preserveAspectRatio="xMidYMid meet">
<metadata>
Created by potrace 1.15, written by Peter Selinger 2001-2017
</metadata>
<g transform="translate(0.000000,1016.000000) scale(0.100000,-0.100000)"
fill="#000000" stroke="none">
<path d="M11945 10121 c-244 -46 -471 -162 -646 -328 -334 -317 -471 -813
-337 -1223 85 -263 295 -496 554 -616 128 -59 241 -85 393 -91 195 -8 338 20
496 99 101 51 159 93 227 167 128 140 164 268 107 382 -34 69 -136 129 -218
129 -52 0 -131 -41 -166 -85 -66 -83 -136 -146 -191 -170 -115 -51 -279 -58
-396 -16 -116 40 -251 154 -306 258 -54 103 -75 200 -67 323 10 178 81 332
215 470 157 161 315 230 530 230 287 0 502 -86 701 -280 145 -142 228 -279
286 -469 24 -78 26 -101 26 -261 1 -145 -3 -191 -21 -266 -65 -275 -191 -505
-369 -675 -147 -140 -336 -251 -523 -309 -217 -67 -29 -62 -2565 -70 -1265 -5
-3199 -5 -4297 -2 l-1998 5 0 -241 0 -242 3123 1 c1717 1 3669 5 4337 9 l1215
7 120 26 c188 41 327 90 490 171 182 91 292 171 445 325 181 182 307 376 410
634 80 200 114 379 113 602 -1 313 -74 576 -235 837 -75 121 -260 315 -378
395 -337 228 -754 335 -1075 274z"/>
<path d="M9235 9754 c-245 -29 -377 -90 -510 -236 -124 -137 -205 -338 -205
-509 0 -274 184 -521 455 -611 101 -33 290 -33 387 0 86 30 125 57 163 112 26
40 30 54 30 116 0 62 -4 76 -29 112 -55 80 -145 100 -270 62 -120 -37 -232 9
-292 120 -29 53 -26 179 5 243 32 65 113 144 179 175 51 23 63 24 161 19 235
-12 377 -95 461 -271 55 -116 74 -200 75 -331 0 -91 -4 -122 -24 -179 -52
-152 -144 -262 -266 -321 -144 -69 39 -65 -2462 -65 l-2263 0 0 -203 0 -204
2233 -7 c1545 -4 2257 -3 2314 4 97 12 259 59 350 100 191 87 336 234 438 444
146 300 145 579 -4 891 -129 269 -319 439 -566 505 -69 18 -269 42 -315 38 -8
0 -28 -3 -45 -4z"/>
<path d="M7360 6094 l0 -226 3263 3 c3107 2 3264 2 3312 -15 129 -46 218 -113
282 -214 141 -220 81 -492 -130 -588 -72 -32 -166 -43 -222 -24 -48 16 -114
75 -132 118 -7 18 -20 69 -28 114 -24 139 -96 208 -214 208 -177 -1 -247 -136
-191 -367 57 -237 242 -431 465 -488 195 -50 420 -17 591 86 206 125 367 383
387 624 13 144 -36 341 -124 500 -129 235 -332 400 -574 468 l-80 22 -3302 3
-3303 2 0 -226z"/>
<path d="M14000 3474 c-294 -36 -581 -150 -797 -318 l-52 -40 36 -50 c21 -28
73 -103 117 -166 44 -63 81 -117 82 -118 1 -2 22 9 46 26 61 42 236 128 332
163 274 102 578 87 745 -36 115 -85 162 -187 169 -371 l4 -122 -448 -5 c-437
-5 -452 -6 -573 -31 -314 -67 -521 -196 -611 -380 -51 -102 -72 -202 -72 -337
1 -119 25 -241 67 -333 100 -220 325 -394 584 -453 92 -21 340 -28 443 -13
224 32 438 139 586 293 l62 65 0 -164 0 -164 250 0 250 0 0 830 c0 852 -4 955
-40 1105 -76 309 -313 516 -690 600 -73 16 -405 29 -490 19z m673 -1541 c-3
-220 -32 -303 -147 -418 -123 -123 -277 -180 -486 -179 -270 1 -416 66 -491
220 -81 164 -29 358 117 435 125 67 210 77 649 78 l360 1 -2 -137z"/>
<path d="M16949 3465 c-145 -27 -306 -86 -404 -147 -275 -173 -472 -432 -544
-716 -73 -283 -67 -610 14 -876 91 -298 336 -589 612 -729 248 -126 566 -154
812 -71 168 56 296 138 444 285 l107 106 0 -651 0 -651 250 3 250 3 0 1714 0
1714 -250 3 -250 3 0 -224 0 -224 -30 44 c-122 185 -326 338 -530 399 -98 29
-364 37 -481 15z m486 -481 c256 -67 465 -289 536 -569 31 -121 34 -361 5
-475 -56 -227 -203 -415 -401 -510 -119 -57 -191 -74 -325 -74 -134 0 -206 16
-325 74 -143 69 -267 182 -347 317 -102 175 -134 441 -78 657 81 315 336 548
655 600 53 8 218 -3 280 -20z"/>
<path d="M1160 3464 c-115 -21 -187 -37 -239 -54 -441 -141 -784 -516 -867
-948 -75 -394 5 -775 222 -1062 49 -65 175 -187 259 -251 174 -132 382 -216
613 -250 121 -17 391 -6 511 20 422 94 790 407 937 798 48 127 65 219 71 388
11 300 -45 534 -177 750 -58 95 -91 135 -195 239 -171 170 -398 294 -638 348
-71 15 -136 21 -282 23 -104 2 -201 1 -215 -1z m343 -479 c163 -24 278 -81
396 -196 150 -146 219 -294 241 -519 11 -110 -5 -273 -36 -370 -83 -261 -296
-457 -559 -516 -211 -47 -442 -16 -622 84 -76 42 -222 195 -265 277 -104 201
-134 461 -79 672 43 165 151 328 279 424 183 135 393 182 645 144z"/>
<path d="M4558 3460 c-229 -39 -435 -168 -584 -368 -32 -42 -61 -80 -64 -84
-3 -4 -3 92 -2 212 l4 219 -271 3 -271 3 0 -1722 0 -1723 271 0 272 0 -6 642
-5 643 87 -84 c227 -221 488 -331 781 -331 363 0 687 170 923 483 215 286 299
688 230 1106 -42 257 -142 459 -316 640 -192 198 -402 309 -671 356 -93 16
-296 18 -378 5z m312 -486 c137 -43 198 -80 314 -192 99 -95 170 -221 212
-372 14 -51 18 -104 19 -240 0 -172 -1 -177 -33 -277 -48 -145 -117 -249 -236
-351 -228 -198 -547 -245 -815 -121 -183 85 -318 242 -392 456 -33 97 -33 99
-34 283 0 149 4 200 19 260 26 105 78 208 146 288 31 38 66 79 76 91 23 27
137 113 179 134 49 25 156 58 215 67 96 15 236 4 330 -26z"/>
<path d="M7624 3455 c-343 -61 -648 -259 -843 -548 -125 -185 -201 -463 -201
-733 1 -485 194 -857 575 -1108 203 -134 426 -196 705 -196 408 1 739 125
1013 379 l47 44 -42 46 c-23 25 -87 95 -142 154 -56 60 -105 116 -109 124 -7
11 -22 2 -71 -45 -152 -146 -341 -223 -590 -239 -171 -11 -369 30 -503 103
-203 110 -318 265 -346 467 l-6 37 986 0 985 0 -5 273 c-7 336 -24 437 -106
619 -131 293 -404 503 -779 600 -105 27 -136 30 -302 34 -131 2 -209 -1 -266
-11z m453 -460 c173 -40 330 -160 404 -309 42 -87 69 -190 69 -271 l0 -50
-720 3 c-700 2 -720 3 -720 21 0 53 34 183 64 246 85 178 297 325 533 370 97
18 270 14 370 -10z"/>
<path d="M11070 3451 c-233 -51 -466 -210 -590 -404 l-40 -62 0 228 0 227
-270 0 -270 0 0 -1258 c0 -692 2 -1261 4 -1263 2 -2 124 -3 270 -1 l265 3 4
757 c3 834 2 819 67 956 46 98 134 203 216 259 265 181 674 146 836 -72 52
-69 82 -134 109 -231 l23 -85 4 -790 3 -790 269 3 270 3 0 762 c0 419 -5 818
-10 887 -34 463 -261 749 -685 865 -96 26 -367 30 -475 6z"/>
</g>
</svg>
