<svg id="svg" xmlns="http://www.w3.org/2000/svg" xmlns:xlink="http://www.w3.org/1999/xlink" width="400" height="271.875" viewBox="0, 0, 400,271.875"><g id="svgg"><path id="path0" d="M133.328 7.471 C 96.653 22.903,78.702 40.330,62.362 76.366 C 57.247 87.646,51.873 96.875,50.418 96.875 C 41.430 96.875,18.266 120.528,9.180 138.984 C -21.124 200.541,22.070 271.864,89.659 271.873 C 110.078 271.875,114.145 269.480,110.929 259.347 C 109.419 254.591,106.192 253.125,97.232 253.125 C 18.137 253.125,-11.721 156.549,55.204 117.188 C 68.903 109.131,71.850 105.615,76.163 92.188 C 99.508 19.505,193.133 -5.222,250.318 46.192 C 265.046 59.434,284.365 91.119,284.373 102.045 C 284.374 104.030,291.943 109.924,301.192 115.145 C 320.349 125.956,328.232 134.805,336.434 154.704 C 342.845 170.260,348.882 174.332,355.591 167.624 C 365.440 157.774,343.616 118.935,319.424 103.259 C 306.575 94.933,301.725 88.995,292.454 70.236 C 263.637 11.928,190.910 -16.758,133.328 7.471 M174.066 64.475 C 168.709 69.833,171.934 78.551,178.906 77.561 C 183.503 76.908,185.938 74.413,185.938 70.355 C 185.938 64.157,178.212 60.330,174.066 64.475 M137.500 93.566 C 137.500 101.980,143.412 104.803,149.107 99.107 C 154.803 93.412,151.980 87.500,143.566 87.500 C 139.645 87.500,137.500 89.645,137.500 93.566 M207.259 92.503 C 205.071 98.204,211.422 103.343,217.685 100.939 C 219.990 100.055,221.875 96.669,221.875 93.416 C 221.875 86.032,210.026 85.292,207.259 92.503 M101.049 114.273 C 100.016 116.966,100.669 120.669,102.500 122.500 C 107.361 127.361,115.625 123.094,115.625 115.723 C 115.625 108.016,103.898 106.849,101.049 114.273 M173.013 114.042 C 171.931 116.862,172.544 120.669,174.375 122.500 C 179.136 127.261,188.158 122.910,186.914 116.452 C 185.529 109.258,175.515 107.522,173.013 114.042 M242.708 113.834 C 240.666 119.154,248.346 126.391,252.988 123.522 C 254.782 122.413,256.250 118.777,256.250 115.441 C 256.250 108.279,245.336 106.984,242.708 113.834 M139.583 133.333 C 135.074 137.842,137.630 146.875,143.416 146.875 C 150.561 146.875,153.986 139.611,149.131 134.756 C 145.118 130.743,142.555 130.362,139.583 133.333 M207.388 135.917 C 206.306 138.737,206.919 142.544,208.750 144.375 C 213.511 149.136,222.533 144.785,221.289 138.327 C 219.904 131.133,209.890 129.397,207.388 135.917 M174.066 155.100 C 168.709 160.458,171.934 169.176,178.906 168.186 C 183.503 167.533,185.938 165.038,185.938 160.980 C 185.938 154.782,178.212 150.955,174.066 155.100 M184.375 183.467 C 157.167 193.471,164.318 223.937,196.039 233.158 C 215.629 238.853,218.203 247.730,200.754 249.417 C 192.225 250.241,190.120 249.078,187.455 242.068 C 185.280 236.349,182.753 234.329,179.388 235.620 C 176.694 236.654,172.494 237.500,170.057 237.500 C 162.506 237.500,165.170 250.026,174.760 259.615 C 194.739 279.594,234.375 268.564,234.375 243.025 C 234.375 227.693,227.145 219.817,207.944 214.235 C 187.940 208.420,183.951 204.135,195.779 201.166 C 202.494 199.481,205.269 200.461,208.788 205.762 C 214.720 214.696,231.250 215.243,231.250 206.506 C 231.250 187.474,206.526 175.322,184.375 183.467 M264.063 184.231 C 235.151 196.190,231.929 249.869,259.273 264.010 C 280.351 274.909,309.626 267.017,317.434 248.330 C 334.214 208.170,301.417 168.781,264.063 184.231 M347.219 188.736 C 338.970 193.308,331.532 204.821,331.361 213.281 C 331.180 222.229,345.185 220.258,349.529 210.724 C 352.152 204.967,355.164 202.979,360.186 203.693 C 373.634 205.603,370.422 216.734,350.177 238.375 C 323.720 266.658,324.445 269.218,358.594 268.090 C 385.436 267.204,385.938 267.044,385.938 259.375 C 385.938 252.879,384.146 251.299,375.305 250.000 L 364.673 248.438 372.874 238.716 C 397.807 209.157,378.442 171.430,347.219 188.736 M293.750 206.250 C 307.353 219.853,298.740 250.000,281.250 250.000 C 269.774 250.000,262.500 240.031,262.500 224.305 C 262.500 211.092,271.057 200.000,281.250 200.000 C 284.688 200.000,290.313 202.813,293.750 206.250 " stroke="none" fill="#000000" fill-rule="evenodd"></path></g></svg>