<svg id="svg" xmlns="http://www.w3.org/2000/svg" xmlns:xlink="http://www.w3.org/1999/xlink" width="400" height="271.875" viewBox="0, 0, 400,271.875"><g id="svgg"><path id="path0" d="M133.328 7.471 C 96.653 22.903,78.702 40.330,62.362 76.366 C 57.247 87.646,51.873 96.875,50.418 96.875 C 41.430 96.875,18.266 120.528,9.180 138.984 C -21.124 200.541,22.070 271.864,89.659 271.873 C 110.078 271.875,114.145 269.480,110.929 259.347 C 109.419 254.591,106.192 253.125,97.232 253.125 C 18.137 253.125,-11.721 156.549,55.204 117.188 C 68.903 109.131,71.850 105.615,76.163 92.188 C 99.508 19.505,193.133 -5.222,250.318 46.192 C 265.046 59.434,284.365 91.119,284.373 102.045 C 284.374 104.030,291.943 109.924,301.192 115.145 C 320.349 125.956,328.232 134.805,336.434 154.704 C 342.845 170.260,348.882 174.332,355.591 167.624 C 365.440 157.774,343.616 118.935,319.424 103.259 C 306.575 94.933,301.725 88.995,292.454 70.236 C 263.637 11.928,190.910 -16.758,133.328 7.471 M174.066 64.475 C 168.709 69.833,171.934 78.551,178.906 77.561 C 183.503 76.908,185.938 74.413,185.938 70.355 C 185.938 64.157,178.212 60.330,174.066 64.475 M137.500 93.566 C 137.500 101.980,143.412 104.803,149.107 99.107 C 154.803 93.412,151.980 87.500,143.566 87.500 C 139.645 87.500,137.500 89.645,137.500 93.566 M207.259 92.503 C 205.071 98.204,211.422 103.343,217.685 100.939 C 219.990 100.055,221.875 96.669,221.875 93.416 C 221.875 86.032,210.026 85.292,207.259 92.503 M101.049 114.273 C 100.016 116.966,100.669 120.669,102.500 122.500 C 107.361 127.361,115.625 123.094,115.625 115.723 C 115.625 108.016,103.898 106.849,101.049 114.273 M173.013 114.042 C 171.931 116.862,172.544 120.669,174.375 122.500 C 179.136 127.261,188.158 122.910,186.914 116.452 C 185.529 109.258,175.515 107.522,173.013 114.042 M242.708 113.834 C 240.666 119.154,248.346 126.391,252.988 123.522 C 254.782 122.413,256.250 118.777,256.250 115.441 C 256.250 108.279,245.336 106.984,242.708 113.834 M139.583 133.333 C 135.074 137.842,137.630 146.875,143.416 146.875 C 150.561 146.875,153.986 139.611,149.131 134.756 C 145.118 130.743,142.555 130.362,139.583 133.333 M207.388 135.917 C 206.306 138.737,206.919 142.544,208.750 144.375 C 213.511 149.136,222.533 144.785,221.289 138.327 C 219.904 131.133,209.890 129.397,207.388 135.917 M174.066 155.100 C 168.709 160.458,171.934 169.176,178.906 168.186 C 183.503 167.533,185.938 165.038,185.938 160.980 C 185.938 154.782,178.212 150.955,174.066 155.100 M264.063 184.231 C 235.151 196.190,231.929 249.869,259.273 264.010 C 280.351 274.909,309.626 267.017,317.434 248.330 C 334.214 208.170,301.417 168.781,264.063 184.231 M344.368 189.844 C 333.497 199.243,332.627 208.817,342.420 211.275 C 348.530 212.809,351.602 211.985,353.690 208.254 C 355.269 205.433,358.600 203.125,361.093 203.125 C 367.958 203.125,366.517 212.852,359.375 214.720 C 349.777 217.229,350.497 234.580,360.156 233.557 C 365.656 232.975,367.395 234.598,368.138 241.007 C 369.359 251.536,360.858 255.415,355.470 246.788 C 349.580 237.356,334.375 238.382,334.375 248.211 C 334.375 267.112,368.012 276.022,382.955 261.080 C 392.035 251.999,393.185 236.133,385.386 227.516 C 381.370 223.078,381.006 220.869,383.824 218.051 C 401.489 200.386,363.546 173.261,344.368 189.844 M293.750 206.250 C 307.353 219.853,298.740 250.000,281.250 250.000 C 269.774 250.000,262.500 240.031,262.500 224.305 C 262.500 211.092,271.057 200.000,281.250 200.000 C 284.688 200.000,290.313 202.813,293.750 206.250 " stroke="none" fill="#000000" fill-rule="evenodd"></path></g></svg>