<svg id="svg" xmlns="http://www.w3.org/2000/svg" xmlns:xlink="http://www.w3.org/1999/xlink" width="400" height="271.875" viewBox="0, 0, 400,271.875"><g id="svgg"><path id="path0" d="M133.328 7.471 C 96.653 22.903,78.702 40.330,62.362 76.366 C 57.247 87.646,51.873 96.875,50.418 96.875 C 41.430 96.875,18.266 120.528,9.180 138.984 C -21.124 200.541,22.070 271.864,89.659 271.873 C 110.078 271.875,114.145 269.480,110.929 259.347 C 109.419 254.591,106.192 253.125,97.232 253.125 C 18.137 253.125,-11.721 156.549,55.204 117.188 C 68.903 109.131,71.850 105.615,76.163 92.188 C 99.508 19.505,193.133 -5.222,250.318 46.192 C 265.046 59.434,284.365 91.119,284.373 102.045 C 284.374 104.030,291.943 109.924,301.192 115.145 C 320.349 125.956,328.232 134.805,336.434 154.704 C 342.845 170.260,348.882 174.332,355.591 167.624 C 365.440 157.774,343.616 118.935,319.424 103.259 C 306.575 94.933,301.725 88.995,292.454 70.236 C 263.637 11.928,190.910 -16.758,133.328 7.471 M174.066 64.475 C 168.709 69.833,171.934 78.551,178.906 77.561 C 183.503 76.908,185.938 74.413,185.938 70.355 C 185.938 64.157,178.212 60.330,174.066 64.475 M137.500 93.566 C 137.500 101.980,143.412 104.803,149.107 99.107 C 154.803 93.412,151.980 87.500,143.566 87.500 C 139.645 87.500,137.500 89.645,137.500 93.566 M207.259 92.503 C 205.071 98.204,211.422 103.343,217.685 100.939 C 219.990 100.055,221.875 96.669,221.875 93.416 C 221.875 86.032,210.026 85.292,207.259 92.503 M101.049 114.273 C 100.016 116.966,100.669 120.669,102.500 122.500 C 107.361 127.361,115.625 123.094,115.625 115.723 C 115.625 108.016,103.898 106.849,101.049 114.273 M173.013 114.042 C 171.931 116.862,172.544 120.669,174.375 122.500 C 179.136 127.261,188.158 122.910,186.914 116.452 C 185.529 109.258,175.515 107.522,173.013 114.042 M242.708 113.834 C 240.666 119.154,248.346 126.391,252.988 123.522 C 254.782 122.413,256.250 118.777,256.250 115.441 C 256.250 108.279,245.336 106.984,242.708 113.834 M139.583 133.333 C 135.074 137.842,137.630 146.875,143.416 146.875 C 150.561 146.875,153.986 139.611,149.131 134.756 C 145.118 130.743,142.555 130.362,139.583 133.333 M207.388 135.917 C 206.306 138.737,206.919 142.544,208.750 144.375 C 213.511 149.136,222.533 144.785,221.289 138.327 C 219.904 131.133,209.890 129.397,207.388 135.917 M174.066 155.100 C 168.709 160.458,171.934 169.176,178.906 168.186 C 183.503 167.533,185.938 165.038,185.938 160.980 C 185.938 154.782,178.212 150.955,174.066 155.100 M283.255 191.950 C 280.525 196.117,275.442 200.431,271.958 201.536 C 267.494 202.953,265.625 206.251,265.625 212.711 C 265.625 222.462,268.598 223.849,278.330 218.640 C 284.087 215.559,284.375 216.676,284.375 242.078 L 284.375 268.750 295.313 268.750 L 306.250 268.750 306.250 226.563 L 306.250 184.375 297.234 184.375 C 291.141 184.375,286.610 186.831,283.255 191.950 M335.309 189.072 C 310.564 206.405,321.062 268.750,348.727 268.750 C 370.767 268.750,378.125 258.178,378.125 226.512 C 378.125 190.534,358.155 173.071,335.309 189.072 M123.232 191.597 C 122.367 193.851,122.059 211.781,122.548 231.441 L 123.438 267.188 131.250 267.188 C 138.471 267.188,139.134 265.946,140.007 250.781 C 140.940 234.576,141.075 234.375,151.030 234.375 C 173.708 234.375,184.428 209.027,168.161 193.872 C 159.960 186.231,125.951 184.510,123.232 191.597 M189.310 190.224 C 187.371 193.362,178.125 253.090,178.125 262.479 C 178.125 280.523,193.372 269.348,195.598 249.674 L 197.756 230.597 207.472 248.700 C 220.140 272.304,223.139 272.683,233.301 251.963 C 242.130 233.960,246.845 231.992,246.918 246.278 C 246.999 262.394,250.271 268.750,258.484 268.750 C 267.108 268.750,267.093 263.317,258.325 211.178 C 253.418 181.996,249.564 182.290,234.108 213.031 L 221.057 238.987 209.170 213.244 C 198.028 189.114,193.349 183.690,189.310 190.224 M356.812 213.281 C 358.382 241.687,355.191 255.605,348.401 249.969 C 343.621 246.003,341.528 209.514,345.833 205.208 C 351.080 199.961,356.287 203.790,356.812 213.281 M158.028 209.724 C 160.518 213.752,154.030 218.633,146.094 218.702 C 142.692 218.732,140.625 216.387,140.625 212.500 C 140.625 205.565,154.127 203.412,158.028 209.724 " stroke="none" fill="#000000" fill-rule="evenodd"></path></g></svg>