<?xml version="1.0" encoding="iso-8859-1"?>
<!-- Generator: Adobe Illustrator 19.0.0, SVG Export Plug-In . SVG Version: 6.00 Build 0)  -->
<svg xmlns="http://www.w3.org/2000/svg" xmlns:xlink="http://www.w3.org/1999/xlink" version="1.1" id="Layer_1" x="0px" y="0px" viewBox="0 0 512 512" style="enable-background:new 0 0 512 512;" xml:space="preserve" width="512" height="512">
<path d="M421.5,0c-44.793,0-82.082,32.712-89.25,75.5H301V0h-90v75.5h-31.25C172.582,32.712,135.292,0,90.5,0  C40.598,0,0,40.598,0,90.5S40.598,181,90.5,181c44.792,0,82.082-32.712,89.25-75.5H211v116.533l-60,105.5V512h210V327.533l-60-105.5  V105.5h31.25c7.168,42.788,44.457,75.5,89.25,75.5c49.902,0,90.5-40.598,90.5-90.5S471.402,0,421.5,0z M90.5,151  C57.14,151,30,123.859,30,90.5S57.14,30,90.5,30S151,57.141,151,90.5S123.86,151,90.5,151z M271,211h-30v-30h30V211z M271,30v121  h-30V30H271z M331,346.5V422H181v-75.5H331z M181,482v-30h150v30H181z M320.213,316.5H191.787l42.938-75.5h42.55L320.213,316.5z   M421.5,151c-33.359,0-60.5-27.141-60.5-60.5S388.141,30,421.5,30S482,57.141,482,90.5S454.859,151,421.5,151z"/>















</svg>
